<svg width="33" height="33" viewBox="0 0 33 33" fill="none" xmlns="http://www.w3.org/2000/svg">
<path d="M32.377 16.5C32.377 7.6625 25.2145 0.5 16.377 0.5C7.53945 0.5 0.376953 7.6625 0.376953 16.5C0.376953 24.4875 6.22695 31.1062 13.877 32.3062V21.125H9.81445V16.5H13.877V12.975C13.877 8.96563 16.2645 6.75 19.9207 6.75C21.6707 6.75 23.502 7.0625 23.502 7.0625V11H21.4832C19.4957 11 18.877 12.2344 18.877 13.5V16.5H23.3145L22.6051 21.125H18.877V32.3062C26.527 31.1062 32.377 24.4875 32.377 16.5Z" fill="#1877F2"/>
<path d="M22.6051 21.125L23.3145 16.5H18.877V13.5C18.877 12.2344 19.4957 11 21.4832 11H23.502V7.0625C23.502 7.0625 21.6707 6.75 19.9207 6.75C16.2645 6.75 13.877 8.96563 13.877 12.975V16.5H9.81445V21.125H13.877V32.3062C14.6926 32.4344 15.527 32.5 16.377 32.5C17.227 32.5 18.0613 32.4344 18.877 32.3062V21.125H22.6051Z" fill="white"/>
</svg>
