<svg width="31" height="20" viewBox="0 0 31 20" fill="none" xmlns="http://www.w3.org/2000/svg">
<path d="M11.4255 8.23676H2.09212C1.7385 8.23676 1.39936 8.1439 1.14931 7.97861C0.899264 7.81332 0.758789 7.58913 0.758789 7.35537V1.1856C0.758789 0.951835 0.899264 0.727647 1.14931 0.562354C1.39936 0.39706 1.7385 0.304199 2.09212 0.304199H11.4255C11.7791 0.304199 12.1182 0.39706 12.3683 0.562354C12.6183 0.727647 12.7588 0.951835 12.7588 1.1856V7.35537C12.7588 7.58913 12.6183 7.81332 12.3683 7.97861C12.1182 8.1439 11.7791 8.23676 11.4255 8.23676Z" fill="#7C3AED"/>
<path d="M11.4255 19.6957H2.09212C1.7385 19.6957 1.39936 19.6029 1.14931 19.4376C0.899264 19.2723 0.758789 19.0481 0.758789 18.8144V12.6446C0.758789 12.4108 0.899264 12.1866 1.14931 12.0213C1.39936 11.856 1.7385 11.7632 2.09212 11.7632H11.4255C11.7791 11.7632 12.1182 11.856 12.3683 12.0213C12.6183 12.1866 12.7588 12.4108 12.7588 12.6446V18.8144C12.7588 19.0481 12.6183 19.2723 12.3683 19.4376C12.1182 19.6029 11.7791 19.6957 11.4255 19.6957Z" fill="#7C3AED"/>
<path d="M16.7588 1.1875H30.0921V2.95029H16.7588V1.1875Z" fill="#1DB5BE"/>
<path d="M30.0921 12.644H16.7588V14.4068H30.0921V12.644Z" fill="#1DB5BE"/>
<path d="M30.0921 17.0542H16.7588V18.817H30.0921V17.0542Z" fill="#C4B5FD"/>
<path d="M30.0921 5.59326H16.7588V7.35605H30.0921V5.59326Z" fill="#C4B5FD"/>
</svg>
