<svg width="27" height="22" viewBox="0 0 27 22" fill="none" xmlns="http://www.w3.org/2000/svg">
<path d="M25.4251 21.5764H13.4251C13.0715 21.5764 12.7324 21.4835 12.4823 21.3182C12.2323 21.1529 12.0918 20.9287 12.0918 20.695V18.9322C12.0918 18.6984 12.2323 18.4742 12.4823 18.3089C12.7324 18.1436 13.0715 18.0508 13.4251 18.0508H25.4251C25.7788 18.0508 26.1179 18.1436 26.3679 18.3089C26.618 18.4742 26.7585 18.6984 26.7585 18.9322V20.695C26.7585 20.9287 26.618 21.1529 26.3679 21.3182C26.1179 21.4835 25.7788 21.5764 25.4251 21.5764Z" fill="#C4B5FD"/>
<path d="M25.4251 0.423828H1.42513C1.07151 0.423828 0.732369 0.516689 0.48232 0.681982C0.232272 0.847276 0.0917969 1.07146 0.0917969 1.30522V3.06801C0.0917969 3.30178 0.232272 3.52596 0.48232 3.69126C0.732369 3.85655 1.07151 3.94941 1.42513 3.94941H25.4251C25.7788 3.94941 26.1179 3.85655 26.3679 3.69126C26.618 3.52596 26.7585 3.30178 26.7585 3.06801V1.30522C26.7585 1.07146 26.618 0.847276 26.3679 0.681982C26.1179 0.516689 25.7788 0.423828 25.4251 0.423828Z" fill="#1DB5BE"/>
<path d="M25.4251 5.71289H1.42513C1.07151 5.71289 0.732369 5.80575 0.48232 5.97105C0.232272 6.13634 0.0917969 6.36053 0.0917969 6.59429V15.4083C0.0917969 15.642 0.232272 15.8662 0.48232 16.0315C0.732369 16.1968 1.07151 16.2896 1.42513 16.2896H25.4251C25.7788 16.2896 26.1179 16.1968 26.3679 16.0315C26.618 15.8662 26.7585 15.642 26.7585 15.4083V6.59429C26.7585 6.36053 26.618 6.13634 26.3679 5.97105C26.1179 5.80575 25.7788 5.71289 25.4251 5.71289Z" fill="#7C3AED"/>
</svg>
