<svg width="32" height="32" viewBox="0 0 32 32" fill="none" xmlns="http://www.w3.org/2000/svg">
<path d="M14.7542 0.175931L0.327546 6.91593C0.229985 6.96067 0.147337 7.0325 0.0894399 7.12288C0.0315429 7.21325 0.000836558 7.31836 0.000977042 7.42569C0.00111753 7.53302 0.0320974 7.63805 0.0902308 7.72827C0.148364 7.8185 0.231201 7.89011 0.328878 7.9346L14.8689 14.6253C15.2982 14.8226 15.7942 14.8226 16.2235 14.6253L30.7635 7.9346C30.8613 7.89024 30.9442 7.81873 31.0025 7.72859C31.0607 7.63844 31.0918 7.53345 31.0921 7.42612C31.0924 7.31879 31.0618 7.21364 31.004 7.12319C30.9463 7.03274 30.8637 6.9608 30.7662 6.91593L16.3382 0.175931C16.0903 0.0600563 15.8199 0 15.5462 0C15.2725 0 15.0022 0.0600563 14.7542 0.175931V0.175931Z" fill="#313165"/>
<path opacity="0.64" d="M30.7659 15.5679L27.7859 14.1759C27.5725 14.0761 27.3399 14.0241 27.1043 14.0234C26.8688 14.0228 26.6359 14.0734 26.4219 14.1719L16.2232 18.8652C16.0108 18.9629 15.7797 19.0135 15.5459 19.0135C15.3121 19.0135 15.081 18.9629 14.8686 18.8652L4.66857 14.1719C4.45475 14.0736 4.22211 14.0231 3.9868 14.0237C3.75148 14.0244 3.51914 14.0763 3.30591 14.1759L0.325904 15.5679C0.228401 15.6127 0.145847 15.6847 0.088068 15.7751C0.0302888 15.8656 -0.000279049 15.9707 1.91962e-06 16.0781C0.000282888 16.1854 0.0314004 16.2904 0.0896524 16.3805C0.147904 16.4707 0.230836 16.5422 0.328572 16.5865L14.8686 23.2759C15.0809 23.3741 15.312 23.4249 15.5459 23.4249C15.7798 23.4249 16.0109 23.3741 16.2232 23.2759L30.7632 16.5865C30.861 16.5422 30.9439 16.4707 31.0022 16.3805C31.0604 16.2904 31.0915 16.1854 31.0918 16.0781C31.0921 15.9707 31.0615 15.8656 31.0037 15.7751C30.946 15.6847 30.8634 15.6127 30.7659 15.5679Z" fill="#C4B5FD"/>
<path d="M30.7654 24.1441L27.7854 22.7521C27.572 22.6524 27.3394 22.6004 27.1039 22.5997C26.8683 22.599 26.6354 22.6496 26.4214 22.7481L16.2228 27.4401C16.0103 27.5378 15.7793 27.5883 15.5454 27.5883C15.3116 27.5883 15.0805 27.5378 14.8681 27.4401L4.6681 22.7468C4.45428 22.6485 4.22164 22.5979 3.98632 22.5986C3.75101 22.5993 3.51867 22.6512 3.30543 22.7507L0.325429 24.1441C0.228301 24.1891 0.146118 24.261 0.0886148 24.3513C0.0311112 24.4416 0.000697863 24.5465 0.000978487 24.6536C0.00125911 24.7607 0.032223 24.8654 0.0901992 24.9554C0.148175 25.0454 0.230734 25.1169 0.328096 25.1614L14.8681 31.8521C15.2974 32.0494 15.7934 32.0494 16.2228 31.8521L30.7628 25.1614C30.8601 25.1169 30.9427 25.0454 31.0007 24.9554C31.0586 24.8654 31.0896 24.7607 31.0899 24.6536C31.0902 24.5465 31.0597 24.4416 31.0022 24.3513C30.9447 24.261 30.8626 24.1891 30.7654 24.1441Z" fill="#1DB5BE"/>
</svg>
