<svg width="33" height="33" viewBox="0 0 33 33" fill="none" xmlns="http://www.w3.org/2000/svg">
<g clip-path="url(#clip0_2822_4424)">
<rect x="0.376953" y="0.5" width="32" height="32" rx="16" fill="url(#paint0_radial_2822_4424)"/>
<rect x="0.376953" y="0.5" width="32" height="32" rx="16" fill="url(#paint1_radial_2822_4424)"/>
<path fill-rule="evenodd" clip-rule="evenodd" d="M16.3779 7.9668C14.0603 7.9668 13.7695 7.97693 12.8593 8.01835C11.9508 8.05995 11.3307 8.20378 10.7881 8.4148C10.2269 8.63276 9.75079 8.92432 9.27648 9.39881C8.8018 9.87313 8.51025 10.3492 8.29158 10.9103C8.08002 11.4531 7.93602 12.0733 7.89513 12.9814C7.85442 13.8917 7.84375 14.1827 7.84375 16.5002C7.84375 18.8178 7.85406 19.1077 7.89531 20.0179C7.93708 20.9264 8.08091 21.5465 8.29175 22.0891C8.50989 22.6503 8.80145 23.1264 9.27594 23.6007C9.75008 24.0754 10.2262 24.3677 10.7871 24.5856C11.33 24.7967 11.9503 24.9405 12.8586 24.9821C13.7688 25.0235 14.0595 25.0336 16.3768 25.0336C18.6945 25.0336 18.9845 25.0235 19.8947 24.9821C20.8032 24.9405 21.424 24.7967 21.9669 24.5856C22.528 24.3677 23.0034 24.0754 23.4775 23.6007C23.9522 23.1264 24.2437 22.6503 24.4624 22.0893C24.6722 21.5465 24.8162 20.9262 24.8589 20.0181C24.8998 19.1079 24.9104 18.8178 24.9104 16.5002C24.9104 14.1827 24.8998 13.8918 24.8589 12.9816C24.8162 12.0732 24.6722 11.4531 24.4624 10.9105C24.2437 10.3492 23.9522 9.87313 23.4775 9.39881C23.0028 8.92414 22.5282 8.63258 21.9664 8.4148C21.4224 8.20378 20.8019 8.05995 19.8935 8.01835C18.9832 7.97693 18.6935 7.9668 16.3752 7.9668H16.3779ZM15.6123 9.50457C15.8395 9.50421 16.093 9.50457 16.3778 9.50457C18.6563 9.50457 18.9263 9.51274 19.8261 9.55363C20.6581 9.59168 21.1096 9.7307 21.4104 9.8475C21.8087 10.0022 22.0926 10.1871 22.3911 10.4857C22.6897 10.7844 22.8746 11.0688 23.0296 11.4671C23.1464 11.7675 23.2857 12.2191 23.3235 13.0511C23.3644 13.9507 23.3733 14.2209 23.3733 16.4982C23.3733 18.7756 23.3644 19.0458 23.3235 19.9454C23.2855 20.7774 23.1464 21.229 23.0296 21.5294C22.875 21.9276 22.6897 22.2112 22.3911 22.5097C22.0924 22.8084 21.8088 22.9932 21.4104 23.1479C21.11 23.2652 20.6581 23.4039 19.8261 23.442C18.9265 23.4828 18.6563 23.4917 16.3778 23.4917C14.0992 23.4917 13.8292 23.4828 12.9296 23.442C12.0976 23.4036 11.6461 23.2645 11.3451 23.1477C10.9469 22.9931 10.6624 22.8082 10.3637 22.5095C10.0651 22.2108 9.88018 21.9271 9.72516 21.5287C9.60835 21.2282 9.46915 20.7767 9.43129 19.9447C9.3904 19.0451 9.38222 18.7749 9.38222 16.4961C9.38222 14.2173 9.3904 13.9485 9.43129 13.049C9.46933 12.217 9.60835 11.7654 9.72516 11.4646C9.87982 11.0664 10.0651 10.7819 10.3637 10.4832C10.6624 10.1846 10.9469 9.99968 11.3451 9.84466C11.6459 9.72732 12.0976 9.58866 12.9296 9.55043C13.7168 9.51488 14.0219 9.50421 15.6123 9.50243V9.50457ZM20.9329 10.9215C20.3676 10.9215 19.9089 11.3796 19.9089 11.9451C19.9089 12.5105 20.3676 12.9691 20.9329 12.9691C21.4983 12.9691 21.9569 12.5105 21.9569 11.9451C21.9569 11.3798 21.4983 10.9215 20.9329 10.9215ZM16.3779 12.1179C13.9578 12.1179 11.9956 14.0801 11.9956 16.5002C11.9956 18.9203 13.9578 20.8816 16.3779 20.8816C18.798 20.8816 20.7595 18.9203 20.7595 16.5002C20.7595 14.0801 18.798 12.1179 16.3779 12.1179ZM16.3779 13.6557C17.9487 13.6557 19.2223 14.9292 19.2223 16.5002C19.2223 18.0711 17.9487 19.3447 16.3779 19.3447C14.8068 19.3447 13.5334 18.0711 13.5334 16.5002C13.5334 14.9292 14.8068 13.6557 16.3779 13.6557Z" fill="white"/>
</g>
<defs>
<radialGradient id="paint0_radial_2822_4424" cx="0" cy="0" r="1" gradientUnits="userSpaceOnUse" gradientTransform="translate(8.87699 34.9647) rotate(-90) scale(31.7144 29.4969)">
<stop stop-color="#FFDD55"/>
<stop offset="0.1" stop-color="#FFDD55"/>
<stop offset="0.5" stop-color="#FF543E"/>
<stop offset="1" stop-color="#C837AB"/>
</radialGradient>
<radialGradient id="paint1_radial_2822_4424" cx="0" cy="0" r="1" gradientUnits="userSpaceOnUse" gradientTransform="translate(-4.98322 2.80523) rotate(78.6806) scale(14.1765 58.4359)">
<stop stop-color="#3771C8"/>
<stop offset="0.128" stop-color="#3771C8"/>
<stop offset="1" stop-color="#6600FF" stop-opacity="0"/>
</radialGradient>
<clipPath id="clip0_2822_4424">
<rect width="32" height="32" fill="white" transform="translate(0.376953 0.5)"/>
</clipPath>
</defs>
</svg>
