<svg width="33" height="25" viewBox="0 0 33 25" fill="none" xmlns="http://www.w3.org/2000/svg">
<path d="M10.0908 22.6558C7.31416 25.4324 2.6116 25.4214 1.2983 21.7207C1.04118 20.9962 0.835599 20.2512 0.684395 19.4911C0.0670325 16.3873 0.383886 13.1703 1.59489 10.2466C2.80589 7.32308 4.85665 4.82422 7.48783 3.06611C10.1191 1.30801 13.2125 0.369629 16.377 0.369629C19.5415 0.369629 22.6349 1.30801 25.2661 3.06611C27.8973 4.82422 29.948 7.32308 31.159 10.2467C32.37 13.1703 32.6868 16.3873 32.0695 19.4911C31.9183 20.2512 31.7128 20.9962 31.4556 21.7207C30.1423 25.4214 25.4398 25.4324 22.6631 22.6558L18.377 18.3696C17.9675 17.9601 18.0098 17.2848 18.1227 16.7169C18.1914 16.3716 18.1561 16.0137 18.0214 15.6885C17.8867 15.3632 17.6586 15.0852 17.3659 14.8897C17.0732 14.6941 16.729 14.5897 16.377 14.5897C16.025 14.5897 15.6808 14.6941 15.3881 14.8897C15.0953 15.0852 14.8672 15.3632 14.7325 15.6885C14.5978 16.0137 14.5625 16.3716 14.6312 16.7169C14.7442 17.2848 14.7864 17.9601 14.3769 18.3696L10.0908 22.6558Z" fill="url(#paint0_linear_2822_4421)"/>
<defs>
<linearGradient id="paint0_linear_2822_4421" x1="30.9205" y1="8.36964" x2="2.52055" y2="8.36964" gradientUnits="userSpaceOnUse">
<stop stop-color="#64C2DB"/>
<stop offset="0.510417" stop-color="#7476ED"/>
<stop offset="1" stop-color="#E56F8C"/>
</linearGradient>
</defs>
</svg>
