<svg width="142" height="117" viewBox="0 0 142 117" fill="none" xmlns="http://www.w3.org/2000/svg">
<path fill-rule="evenodd" clip-rule="evenodd" d="M141.377 18.6171C120.202 28.6823 109.615 40.5086 109.615 54.0965C118.64 55.103 126.103 58.6677 132.005 64.7907C137.906 70.9136 140.857 78.001 140.857 86.0531C140.857 94.6085 137.993 101.822 132.265 107.693C126.537 113.564 119.334 116.5 110.656 116.5C100.936 116.5 92.5185 112.684 85.4023 105.051C78.286 97.4183 74.728 88.1501 74.728 77.2462C74.728 44.5345 93.6465 18.9527 131.484 0.5L141.377 18.6171ZM66.6493 18.6171C45.3006 28.6823 34.6264 40.5086 34.6264 54.0965C43.8254 55.103 51.3755 58.6677 57.2767 64.7907C63.178 70.9136 66.1286 78.001 66.1286 86.0531C66.1286 94.6085 63.2214 101.822 57.4069 107.693C51.5924 113.564 44.3461 116.5 35.6678 116.5C25.948 116.5 17.5736 112.684 10.5441 105.051C3.51467 97.4183 0 88.1501 0 77.2462C0 44.5345 18.8317 18.9527 56.4957 0.5L66.6493 18.6171Z" fill="#1DB5BE"/>
</svg>
